<svg id="Capa_1" enable-background="new 0 0 512 512" height="512" viewBox="0 0 512 512" width="512" xmlns="http://www.w3.org/2000/svg"><g fill="#fbe77b"><path d="m214.374 64.52s-64.52-64.52-139.447-64.52c-43.707 0-60.358 29.138-60.358 58.276s17.691 58.276 49.951 58.276h149.854z"/><path d="m214.374 64.52s-64.52-64.52-139.447-64.52c-43.707 0-60.358 29.138-60.358 58.276s17.691 58.276 49.951 58.276h149.854z"/><path d="m297.626 64.52s64.52-64.52 139.447-64.52c43.707 0 60.358 29.138 60.358 58.276s-17.691 58.276-49.951 58.276h-149.854z"/></g><path d="m492 199.805h-472c-11.046 0-20-8.954-20-20v-43.252c0-11.046 8.954-20 20-20h472c11.046 0 20 8.954 20 20v43.252c0 11.046-8.954 20-20 20z" fill="#fb636f"/><path d="m484.943 116.553v83.252h6.453c11.379 0 20.604-9.225 20.604-20.604v-42.045c0-11.379-9.225-20.604-20.604-20.604h-6.453z" fill="#fa4954"/><path d="m193.561 116.553h124.878v83.252h-124.878z" fill="#fbe77b"/><path d="m464.943 512h-417.886c-11.046 0-20-8.954-20-20v-292.195h457.886v292.195c0 11.046-8.954 20-20 20z" fill="#fb636f"/><path d="m27.057 199.805h457.886v24.976h-457.886z" fill="#fa4954"/><path d="m214.374 199.805h83.252v312.195h-83.252z" fill="#fbe77b"/><path d="m214.374 199.805h83.252v24.976h-83.252z" fill="#fcdd2e"/><path d="m326.764 95.74c-4.333 0-8.045-2.65-9.611-6.416 2.685-.986 5.58-1.951 8.585-2.798 4.107-1.158 6.498-5.426 5.341-9.533s-5.425-6.499-9.533-5.341c-1.773.5-3.505 1.035-5.189 1.589v-24.848c-11.859 9.256-18.732 16.127-18.732 16.127v52.033h149.855c17.376 0 30.516-8.46 38.951-20.813z" fill="#fcdd2e"/><path d="m195.642 48.393v24.848c-1.683-.554-3.416-1.089-5.189-1.589-4.104-1.157-8.375 1.233-9.533 5.341-1.157 4.107 1.233 8.375 5.341 9.533 2.998.845 5.895 1.812 8.584 2.8-1.566 3.765-5.278 6.413-9.61 6.413h-159.666c8.435 12.353 21.575 20.813 38.951 20.813h149.854v-52.032s-6.873-6.871-18.732-16.127z" fill="#fcdd2e"/><path d="m297.626 116.553h-83.252v-52.602c0-7.732 6.268-14 14-14h55.252c7.732 0 14 6.268 14 14z" fill="#fbe77b"/><path d="m214.374 95.74h83.252v20.813h-83.252z" fill="#fcdd2e"/></svg>